HIERARCHY
ROOT Hips
{
	OFFSET 0.000000 100.481300 0.000000
	CHANNELS 6 Xposition Yposition Zposition Xrotation Yrotation Zrotation 
	JOINT Spine
	{
		OFFSET -0.279200 12.230698 -2.892100
		CHANNELS 3 Xrotation Yrotation Zrotation
		JOINT Spine1
		{
			OFFSET -0.232667 10.192268 -1.242267
			CHANNELS 3 Xrotation Yrotation Zrotation
			JOINT Spine1_split
			{
				OFFSET -0.232667 10.192268 -1.242267
				CHANNELS 3 Xrotation Yrotation Zrotation
				JOINT Spine2
				{
					OFFSET -0.232667 10.192268 -1.242267
					CHANNELS 3 Xrotation Yrotation Zrotation
					JOINT Neck
					{
						OFFSET -0.418800 17.814194 8.416900
						CHANNELS 3 Xrotation Yrotation Zrotation
						JOINT Head
						{
							OFFSET 0.000000 7.031097 3.806800
							CHANNELS 3 Xrotation Yrotation Zrotation
							JOINT HeadTop_End
							{
								OFFSET 0.000000 24.646606 12.978600
								CHANNELS 3 Xrotation Yrotation Zrotation
								End Site
								{
									OFFSET 0.000000 0.000000 0.000000
								}
							}
						}
					}
					JOINT LeftShoulder
					{
						OFFSET 8.476499 7.247704 -3.868750
						CHANNELS 3 Xrotation Yrotation Zrotation
						JOINT LeftShoulder_split
						{
							OFFSET 8.476499 7.247704 -3.868750
							CHANNELS 3 Xrotation Yrotation Zrotation
							JOINT LeftArm
							{
								OFFSET 9.308998 -2.777710 0.208600
								CHANNELS 3 Xrotation Yrotation Zrotation
								JOINT LeftForeArm
								{
									OFFSET 29.972298 0.000000 0.000000
									CHANNELS 3 Xrotation Yrotation Zrotation
									JOINT LeftHand
									{
										OFFSET 26.026505 0.000000 0.000000
										CHANNELS 3 Xrotation Yrotation Zrotation
										JOINT LeftHandThumb1
										{
											OFFSET 12.240501 -7.147949 9.207150
											CHANNELS 3 Xrotation Yrotation Zrotation
											JOINT LeftHandThumb2
											{
												OFFSET 4.138618 -2.389435 2.389433
												CHANNELS 3 Xrotation Yrotation Zrotation
												JOINT LeftHandThumb3
												{
													OFFSET 2.726913 -1.574387 1.574386
													CHANNELS 3 Xrotation Yrotation Zrotation
													JOINT LeftHandThumb4
													{
														OFFSET 3.941010 -2.275345 2.275342
														CHANNELS 3 Xrotation Yrotation Zrotation
														End Site
														{
															OFFSET 0.000000 0.000000 0.000000
														}
													}
												}
											}
										}
										JOINT LeftHandIndex1
										{
											OFFSET 24.424698 -1.985611 5.953459
											CHANNELS 3 Xrotation Yrotation Zrotation
											JOINT LeftHandIndex2
											{
												OFFSET 6.426697 0.000000 0.000000
												CHANNELS 3 Xrotation Yrotation Zrotation
												JOINT LeftHandIndex3
												{
													OFFSET 5.337898 0.000000 0.000000
													CHANNELS 3 Xrotation Yrotation Zrotation
													JOINT LeftHandIndex4
													{
														OFFSET 4.409401 0.000000 0.000000
														CHANNELS 3 Xrotation Yrotation Zrotation
														End Site
														{
															OFFSET 0.000000 0.000000 0.000000
														}
													}
												}
											}
										}
										JOINT LeftHandMiddle1
										{
											OFFSET 23.810104 0.000000 0.000000
											CHANNELS 3 Xrotation Yrotation Zrotation
											JOINT LeftHandMiddle2
											{
												OFFSET 7.176498 0.000000 0.000000
												CHANNELS 3 Xrotation Yrotation Zrotation
												JOINT LeftHandMiddle3
												{
													OFFSET 6.774902 0.000000 0.000000
													CHANNELS 3 Xrotation Yrotation Zrotation
													JOINT LeftHandMiddle4
													{
														OFFSET 5.403328 0.000000 0.000000
														CHANNELS 3 Xrotation Yrotation Zrotation
														End Site
														{
															OFFSET 0.000000 0.000000 0.000000
														}
													}
												}
											}
										}
										JOINT LeftHandRing1
										{
											OFFSET 22.908401 -0.839279 -6.020567
											CHANNELS 3 Xrotation Yrotation Zrotation
											JOINT LeftHandRing2
											{
												OFFSET 6.337502 0.000000 0.000000
												CHANNELS 3 Xrotation Yrotation Zrotation
												JOINT LeftHandRing3
												{
													OFFSET 5.779297 0.000000 0.000000
													CHANNELS 3 Xrotation Yrotation Zrotation
													JOINT LeftHandRing4
													{
														OFFSET 4.965698 0.000000 0.000000
														CHANNELS 3 Xrotation Yrotation Zrotation
														End Site
														{
															OFFSET 0.000000 0.000000 0.000000
														}
													}
												}
											}
										}
										JOINT LeftHandPinky1
										{
											OFFSET 20.037003 -1.530319 -10.950146
											CHANNELS 3 Xrotation Yrotation Zrotation
											JOINT LeftHandPinky2
											{
												OFFSET 5.254700 0.000000 0.000000
												CHANNELS 3 Xrotation Yrotation Zrotation
												JOINT LeftHandPinky3
												{
													OFFSET 4.810204 0.000000 0.000000
													CHANNELS 3 Xrotation Yrotation Zrotation
													JOINT LeftHandPinky4
													{
														OFFSET 3.647202 0.000000 0.000000
														CHANNELS 3 Xrotation Yrotation Zrotation
														End Site
														{
															OFFSET 0.000000 0.000000 0.000000
														}
													}
												}
											}
										}
									}
								}
							}
						}
					}
					JOINT RightShoulder
					{
						OFFSET -7.570500 7.247704 -3.868750
						CHANNELS 3 Xrotation Yrotation Zrotation
						JOINT RightShoulder_split
						{
							OFFSET -7.570500 7.247704 -3.868750
							CHANNELS 3 Xrotation Yrotation Zrotation
							JOINT RightArm
							{
								OFFSET -9.308998 -2.777710 0.208500
								CHANNELS 3 Xrotation Yrotation Zrotation
								JOINT RightForeArm
								{
									OFFSET -29.972300 0.000000 0.000000
									CHANNELS 3 Xrotation Yrotation Zrotation
									JOINT RightHand
									{
										OFFSET -26.026505 0.000000 0.000000
										CHANNELS 3 Xrotation Yrotation Zrotation
										JOINT RightHandThumb1
										{
											OFFSET -12.240601 -7.148026 9.207092
											CHANNELS 3 Xrotation Yrotation Zrotation
											JOINT RightHandThumb2
											{
												OFFSET -4.138618 -2.389435 2.389433
												CHANNELS 3 Xrotation Yrotation Zrotation
												JOINT RightHandThumb3
												{
													OFFSET -2.726974 -1.574417 1.574421
													CHANNELS 3 Xrotation Yrotation Zrotation
													JOINT RightHandThumb4
													{
														OFFSET -3.941010 -2.275345 2.275343
														CHANNELS 3 Xrotation Yrotation Zrotation
														End Site
														{
															OFFSET 0.000000 0.000000 0.000000
														}
													}
												}
											}
										}
										JOINT RightHandIndex1
										{
											OFFSET -24.424698 -1.985657 5.953444
											CHANNELS 3 Xrotation Yrotation Zrotation
											JOINT RightHandIndex2
											{
												OFFSET -6.426697 0.000000 0.000000
												CHANNELS 3 Xrotation Yrotation Zrotation
												JOINT RightHandIndex3
												{
													OFFSET -5.337898 0.000000 0.000000
													CHANNELS 3 Xrotation Yrotation Zrotation
													JOINT RightHandIndex4
													{
														OFFSET -4.409401 0.000000 0.000000
														CHANNELS 3 Xrotation Yrotation Zrotation
														End Site
														{
															OFFSET 0.000000 0.000000 0.000000
														}
													}
												}
											}
										}
										JOINT RightHandMiddle1
										{
											OFFSET -23.810097 0.000000 0.000000
											CHANNELS 3 Xrotation Yrotation Zrotation
											JOINT RightHandMiddle2
											{
												OFFSET -7.176498 0.000000 0.000000
												CHANNELS 3 Xrotation Yrotation Zrotation
												JOINT RightHandMiddle3
												{
													OFFSET -6.774902 0.000000 0.000000
													CHANNELS 3 Xrotation Yrotation Zrotation
													JOINT RightHandMiddle4
													{
														OFFSET -5.403328 0.000000 0.000000
														CHANNELS 3 Xrotation Yrotation Zrotation
														End Site
														{
															OFFSET 0.000000 0.000000 0.000000
														}
													}
												}
											}
										}
										JOINT RightHandRing1
										{
											OFFSET -22.908302 -0.839325 -6.020576
											CHANNELS 3 Xrotation Yrotation Zrotation
											JOINT RightHandRing2
											{
												OFFSET -6.337502 0.000000 0.000000
												CHANNELS 3 Xrotation Yrotation Zrotation
												JOINT RightHandRing3
												{
													OFFSET -5.779297 0.000000 0.000000
													CHANNELS 3 Xrotation Yrotation Zrotation
													JOINT RightHandRing4
													{
														OFFSET -4.965698 0.000000 0.000000
														CHANNELS 3 Xrotation Yrotation Zrotation
														End Site
														{
															OFFSET 0.000000 0.000000 0.000000
														}
													}
												}
											}
										}
										JOINT RightHandPinky1
										{
											OFFSET -20.037003 -1.530334 -10.950259
											CHANNELS 3 Xrotation Yrotation Zrotation
											JOINT RightHandPinky2
											{
												OFFSET -5.254700 0.000000 0.000000
												CHANNELS 3 Xrotation Yrotation Zrotation
												JOINT RightHandPinky3
												{
													OFFSET -4.810204 0.000000 0.000000
													CHANNELS 3 Xrotation Yrotation Zrotation
													JOINT RightHandPinky4
													{
														OFFSET -3.647202 0.000000 0.000000
														CHANNELS 3 Xrotation Yrotation Zrotation
														End Site
														{
															OFFSET 0.000000 0.000000 0.000000
														}
													}
												}
											}
										}
									}
								}
							}
						}
					}
				}
			}
		}
	}
	JOINT LeftUpLeg
	{
		OFFSET 15.427100 -6.655098 0.678600
		CHANNELS 3 Xrotation Yrotation Zrotation
		JOINT LeftLeg
		{
			OFFSET 4.081073 -39.591068 13.024000
			CHANNELS 3 Xrotation Yrotation Zrotation
			JOINT LeftFoot
			{
				OFFSET -4.081074 -37.707932 -15.979700
				CHANNELS 3 Xrotation Yrotation Zrotation
				JOINT LeftToeBase
				{
					OFFSET 5.346399 -15.068900 20.645000
					CHANNELS 3 Xrotation Yrotation Zrotation
					JOINT LeftToe_End
					{
						OFFSET 2.754700 0.931300 11.300900
						CHANNELS 3 Xrotation Yrotation Zrotation
						End Site
						{
							OFFSET 0.000000 0.000000 0.000000
						}
					}
				}
			}
		}
	}
	JOINT RightUpLeg
	{
		OFFSET -15.569500 -6.655098 0.678600
		CHANNELS 3 Xrotation Yrotation Zrotation
		JOINT RightLeg
		{
			OFFSET -4.081825 -39.591045 13.023800
			CHANNELS 3 Xrotation Yrotation Zrotation
			JOINT RightFoot
			{
				OFFSET 4.081824 -37.707954 -15.979600
				CHANNELS 3 Xrotation Yrotation Zrotation
				JOINT RightToeBase
				{
					OFFSET -5.346400 -15.068900 20.645000
					CHANNELS 3 Xrotation Yrotation Zrotation
					JOINT RightToe_End
					{
						OFFSET -2.754700 0.931300 11.300900
						CHANNELS 3 Xrotation Yrotation Zrotation
						End Site
						{
							OFFSET 0.000000 0.000000 0.000000
						}
					}
				}
			}
		}
	}
}
MOTION
Frames: 4
Frame Time: 0.016667
4.809730 38.459991 -21.497631 35.833703 0.347303 2.190023 11.083910 -0.219217 -1.993343 22.176808 0.436127 -4.312042 0.000000 0.000000 0.000000 22.176808 0.436130 -4.312044 -24.273809 -2.101650 -0.458652 -32.969890 -5.781656 3.191220 0.000002 -0.000000 0.000000 0.640944 -3.294367 -0.953793 0.000000 0.000000 0.000000 -15.835078 -34.689967 -16.373896 4.581049 -102.085298 2.759789 44.263277 29.883591 20.699401 11.125185 -10.608003 5.635059 13.047547 13.035022 -0.568280 0.000007 0.000003 0.000007 -0.000001 0.000003 0.000000 2.762757 -9.722648 -4.298515 -0.734985 0.012652 -24.937156 0.000001 0.000001 0.000000 -0.000000 -0.000001 0.000000 0.691170 0.688883 -10.668323 -1.829436 -2.017381 -30.196031 0.000003 0.000001 0.000006 0.000001 -0.000001 -0.000001 0.170520 9.516314 -23.800785 -0.026560 -3.190978 -36.374794 0.000003 0.000000 0.000002 -0.000000 0.000000 0.000001 0.671142 29.060805 -33.488127 0.187205 -6.380940 -42.445572 -0.000002 0.000001 -0.000002 0.000000 0.000000 -0.000000 5.833062 29.728016 10.839905 0.000000 0.000000 0.000000 -38.904348 17.802009 21.911291 10.180148 60.700335 -18.967881 39.144904 -25.749528 -58.258105 -28.903107 10.875989 -5.700026 1.644008 -0.336602 -1.627246 0.000008 -0.000007 -0.000008 -0.000001 0.000000 0.000000 -1.509182 6.134604 4.269185 0.284812 -2.247847 5.347510 0.000001 0.000000 0.000000 -0.000000 -0.000000 0.000000 -0.686665 -1.935914 4.591086 -0.718848 0.493053 15.506157 -0.000001 -0.000002 0.000006 -0.000000 0.000000 0.000002 2.037171 -12.730997 11.026368 0.036378 2.329721 17.761658 0.000002 -0.000001 0.000004 0.000001 -0.000003 0.000001 6.527994 -28.103848 17.554860 -0.488535 6.557318 19.904215 -0.000001 0.000002 -0.000002 0.000001 -0.000000 0.000003 -70.102890 -16.260952 51.399424 113.100522 -23.027611 -13.751100 -43.061266 -12.437535 -19.651395 -29.804063 0.525333 -1.193149 0.000001 0.000000 0.000000 -100.854266 -5.019681 -13.690616 126.741632 11.225010 0.754315 -35.064566 2.446942 -13.390338 -40.777315 -0.185480 -1.536665 0.000001 -0.000000 0.000000 
4.974287 36.701599 -22.339176 37.222113 2.297662 1.726380 10.523748 -0.628557 -1.546987 21.050945 0.321394 -3.994275 0.000000 0.000000 0.000000 21.050937 0.321396 -3.994272 -21.738768 -2.217309 -0.825594 -34.315656 -6.604941 3.109563 -0.000002 -0.000000 -0.000000 0.342998 -2.949976 -1.792630 0.000000 0.000000 0.000000 -16.403948 -37.051256 -18.318928 2.482980 -100.497559 0.139313 47.566394 27.306024 17.670594 11.188549 -11.111380 6.012797 11.620602 14.042202 -0.106126 0.000005 0.000003 0.000009 0.000001 0.000002 0.000002 3.446693 -9.799943 -1.845123 -0.760084 -0.016568 -25.262909 0.000000 0.000002 0.000001 0.000004 0.000003 -0.000002 0.747684 0.207640 -8.580254 -1.876521 -2.032478 -30.535153 0.000005 0.000003 0.000005 0.000001 -0.000001 -0.000001 0.085827 9.613135 -22.173787 -0.014831 -3.214884 -36.633815 0.000002 0.000001 0.000002 -0.000001 0.000000 0.000001 -0.053542 29.550496 -31.903394 0.218738 -6.412732 -42.751517 -0.000003 0.000000 -0.000002 -0.000000 -0.000000 -0.000000 5.774367 29.321377 12.382902 0.000000 0.000000 0.000000 -39.766113 19.774414 22.445557 8.302437 57.691650 -16.019521 40.345265 -23.597504 -59.666231 -31.298177 12.346664 -7.537899 1.803074 -0.055190 -1.277181 0.000007 -0.000008 -0.000007 -0.000001 0.000000 -0.000000 -1.571555 6.221606 2.837441 0.274707 -2.142569 6.406117 -0.000001 0.000000 -0.000000 0.000002 -0.000000 -0.000000 -0.726561 -1.842136 4.353598 -0.734668 0.515551 15.825666 -0.000001 -0.000004 0.000008 0.000000 -0.000000 0.000002 2.017711 -12.871193 10.562707 0.036062 2.354617 18.021458 0.000003 -0.000002 0.000004 0.000000 -0.000003 -0.000001 6.575647 -28.588199 17.176304 -0.497812 6.579893 20.205332 0.000000 0.000002 -0.000002 0.000001 -0.000000 0.000003 -62.671630 -15.107757 56.599172 110.404551 -28.192808 -16.644638 -47.658249 -11.530336 -21.364693 -30.881430 0.389162 -1.463158 0.000000 -0.000000 -0.000000 -106.324032 2.570074 -15.290582 128.623636 14.098985 3.001889 -31.466323 0.781384 -10.022855 -41.811618 0.175462 -2.344927 0.000000 0.000000 0.000000 
5.087533 35.207687 -22.806076 38.484216 3.965424 1.272840 9.886176 -0.930413 -1.112730 19.767498 0.228246 -3.621572 0.000000 0.000000 0.000000 19.767515 0.228246 -3.621573 -19.301413 -2.327293 -1.169200 -35.559737 -7.352561 3.025417 0.000001 -0.000000 -0.000000 0.020298 -2.572768 -2.855807 0.000000 0.000000 0.000000 -17.018347 -39.190471 -20.988073 0.982740 -97.925085 -1.973395 50.723485 23.806817 15.248146 11.263539 -11.680994 6.443939 9.567419 15.252089 0.466264 0.000005 0.000002 0.000006 -0.000003 -0.000001 0.000000 4.242351 -9.839356 0.880830 -0.788957 -0.049311 -25.632414 -0.000000 -0.000001 -0.000000 -0.000002 -0.000001 0.000000 0.850834 -0.260201 -6.350876 -1.929576 -2.048769 -30.911947 0.000007 0.000004 0.000006 0.000000 -0.000001 0.000002 0.007496 9.769580 -20.426794 -0.002232 -3.242806 -36.940132 0.000003 -0.000001 0.000002 -0.000001 0.000000 0.000000 -0.979638 29.990425 -30.003925 0.254537 -6.449644 -43.107919 -0.000003 0.000000 -0.000000 0.000000 0.000000 -0.000000 5.824600 28.867795 13.884152 0.000000 0.000000 0.000000 -39.853095 20.536065 22.693070 6.574744 55.607719 -13.152773 41.209981 -21.195274 -61.261169 -33.487051 13.898082 -9.125761 2.049868 0.409620 -0.803318 0.000008 -0.000007 -0.000008 0.000001 0.000001 -0.000000 -1.697771 6.426634 1.495229 0.265364 -2.026618 7.570308 -0.000000 -0.000000 -0.000001 -0.000001 -0.000000 -0.000002 -0.774789 -1.732079 4.150758 -0.747657 0.537081 16.125684 -0.000002 -0.000003 0.000008 -0.000001 0.000001 0.000002 1.998256 -12.963670 10.222171 0.036648 2.380255 18.283472 -0.000001 -0.000000 0.000005 -0.000002 -0.000000 -0.000000 6.654030 -29.138506 16.814428 -0.510109 6.601654 20.511405 -0.000001 -0.000000 0.000000 -0.000001 -0.000000 0.000003 -59.276323 -15.055854 60.415694 108.405177 -31.650523 -18.802191 -49.236901 -11.674160 -22.647056 -31.475561 0.137943 -1.640728 -0.000000 -0.000001 0.000000 -110.011555 11.227808 -18.352293 129.301109 19.440320 6.260111 -28.012667 -0.129794 -7.672865 -41.656197 0.256754 -2.698144 0.000001 0.000000 0.000000 
5.161110 33.991600 -22.795280 39.604104 5.198065 0.946134 9.209279 -1.009578 -0.804332 18.408705 0.142228 -3.175026 0.000000 0.000000 0.000000 18.408692 0.142230 -3.175025 -17.035877 -2.424128 -1.481492 -36.678741 -8.013699 2.944159 0.000002 0.000000 -0.000000 -0.284218 -2.135470 -4.160780 0.000000 0.000000 0.000000 -17.677353 -40.741891 -24.178931 -0.081750 -94.687841 -3.563228 53.370176 19.581275 13.653762 11.343348 -12.273132 6.900001 6.708300 16.475120 1.460191 0.000006 0.000001 0.000006 -0.000002 0.000002 0.000000 5.234335 -9.820475 4.263364 -0.819174 -0.080982 -26.000234 0.000002 0.000001 -0.000001 0.000000 0.000000 -0.000003 1.074204 -0.481000 -4.034317 -1.984926 -2.064387 -31.305110 0.000008 0.000004 0.000006 -0.000002 0.000002 -0.000002 -0.066301 10.084475 -18.359062 0.011136 -3.271455 -37.253409 0.000002 -0.000000 0.000001 0.000002 -0.000000 -0.000000 -2.129074 30.421335 -27.650979 0.291441 -6.488820 -43.471255 -0.000003 0.000000 -0.000002 -0.000000 0.000000 0.000000 5.973613 28.508240 15.261354 0.000000 0.000000 0.000000 -39.460564 20.823671 22.407576 5.371257 54.315662 -10.616620 41.903952 -19.438143 -62.692770 -34.145618 14.695615 -8.490568 2.362726 0.806175 -0.204917 0.000009 -0.000008 -0.000007 0.000000 0.000000 -0.000001 -1.881067 6.920226 0.918369 0.258635 -1.909419 8.741233 0.000000 0.000000 -0.000002 -0.000000 0.000000 0.000000 -0.827271 -1.607670 4.041265 -0.757724 0.556760 16.394283 -0.000001 -0.000003 0.000006 -0.000001 0.000000 -0.000002 1.986206 -12.991871 10.062146 0.038636 2.401864 18.499115 -0.000000 -0.000001 0.000003 0.000001 -0.000000 -0.000002 6.755797 -29.733518 16.485435 -0.523440 6.614800 20.722049 0.000001 0.000002 -0.000004 0.000002 0.000002 -0.000003 -59.210015 -17.230651 63.465039 107.909817 -33.994371 -20.750958 -48.286350 -13.073597 -23.171669 -31.513134 -0.218608 -1.703811 -0.000001 0.000002 0.000000 -108.692051 19.480359 -24.957720 128.116426 27.644894 11.255209 -27.036501 0.501640 -8.099464 -40.890051 -0.103636 -2.531046 0.000001 0.000000 0.000000 
